# xmcd
#
# Track frame offsets:
#	150
#	12653
#	23989
#	34876
#	52504
#	64791
#	77396
#	90608
#	102823
#	114643
#	127805
#	138078
#
# Disc length: 2000 seconds
#
# Revision: 0
# Processed by: cddbd v1.5.2PL0 Copyright (c) Steve Scherf et al.
# Submitted via: dBpowerAMP V4.0
#
DISCID=8a07ce0c
DTITLE=Kenny Rogers and Dolly Parton - Kenny and Dolly
DYEAR=2006
DGENRE=Country
TTITLE0=Reuben James
TTITLE1=Honky Tonk Angels
TTITLE2=She Woke Me Up To Say Goodbye
TTITLE3=Something's Burning
TTITLE4=Makin' Believe
TTITLE5=Two Little Orphans
TTITLE6=Run Through Your Mind
TTITLE7=Letter To Heaven
TTITLE8=Me and Bobby McGee
TTITLE9=Ruby, Don't Take Your Love To Town
TTITLE10=Conditions
TTITLE11=Elvira
EXTD=
EXTT0=
EXTT1=
EXTT2=
EXTT3=
EXTT4=
EXTT5=
EXTT6=
EXTT7=
EXTT8=
EXTT9=
EXTT10=
EXTT11=
PLAYORDER=
